# xmcd
#
# Track frame offsets:
#	150
#	14506
#	29745
#	41577
#	53113
#	66795
#	80549
#	92213
#	106992
#	119018
#	131624
#	147261
#	169835
#	182351
#	191540
#	204626
#
# Disc length: 2878 seconds
#
# Revision: 1
# Processed by: cddbd v1.5.2PL0 Copyright (c) Steve Scherf et al.
# Submitted via: EasyCDDAExtractor 9.0.0.1
#
DISCID=e70b3c10
DTITLE=Eddie Constantine - Mes plus grands succés
DYEAR=1968
DGENRE=Chanson
TTITLE0=Ah ! Les femmes
TTITLE1=L'homme et l'enfant
TTITLE2=Je vais revoir ma blonde
TTITLE3=Les amoureux du Havre
TTITLE4=Ce diable noir
TTITLE5=La fille des bois
TTITLE6=Il n'y a que toi pour faire ça
TTITLE7=Old man river
TTITLE8=Cigarette, Whisky et p'tites pépées
TTITLE9=Ca bardait
TTITLE10=Et baillet et dormir
TTITLE11=Je prends les choses du bon côté
TTITLE12=Je t'aime comme ça
TTITLE13=Ca me démange
TTITLE14=Quand tu viens chez moi mon coeur
TTITLE15=L'enfant de la balle
EXTD=
EXTT0=
EXTT1=
EXTT2=
EXTT3=
EXTT4=
EXTT5=
EXTT6=
EXTT7=
EXTT8=
EXTT9=
EXTT10=
EXTT11=
EXTT12=
EXTT13=
EXTT14=
EXTT15=
PLAYORDER=
